<svg data-v-423bf9ae="" xmlns="http://www.w3.org/2000/svg" viewBox="0 0 568 90" class="iconLeft"><!----><!----><!----><g data-v-423bf9ae="" id="dff6edd0-fc27-41b9-826a-8c5eb7dba9f2" fill="white" transform="matrix(5.934717742604922,0,0,5.934717742604922,207.98279814546464,-5.178042321347)"><path d="M0.49 13.30L4.86 13.30C9.16 13.30 10.23 10.79 10.23 8.29C10.23 5.99 9.21 3.61 5.14 3.61L0.49 3.61L0.49 4.02C1.72 4.10 1.75 4.13 1.75 4.91L1.75 12.00C1.75 12.78 1.72 12.81 0.49 12.89ZM3.14 11.55L3.14 4.90C3.14 4.17 3.26 4.10 4.76 4.10C7.73 4.10 8.67 5.98 8.67 8.34C8.67 11.87 6.94 12.81 4.59 12.81C3.37 12.81 3.14 12.66 3.14 11.55ZM11.51 9.93C11.51 12.14 12.46 13.47 14.74 13.47C16.30 13.47 17.09 12.60 17.47 11.49L17.05 11.27C16.66 12.08 16.13 12.75 15.02 12.75C13.29 12.75 12.94 11.07 12.96 9.62L17.00 9.62C17.29 9.62 17.56 9.55 17.56 9.09C17.56 8.26 17.29 6.27 14.73 6.27C12.54 6.27 11.51 7.83 11.51 9.93ZM12.98 9.09C12.98 8.51 13.19 6.76 14.64 6.76C15.95 6.76 16.10 8.09 16.10 8.64C16.10 8.90 16.02 9.09 15.62 9.09ZM18.03 6.85C18.69 6.90 18.82 6.96 19.03 7.48C19.40 8.40 19.73 9.31 20.08 10.28L21.15 13.30L22.16 13.30L23.41 9.91C23.81 8.82 24.22 7.90 24.42 7.45C24.63 6.96 24.78 6.87 25.42 6.85L25.42 6.44L22.76 6.44L22.76 6.85L23.45 6.92C23.67 6.94 23.72 7.10 23.66 7.29C23.55 7.74 23.28 8.55 22.96 9.45L22.02 12.04L21.99 12.04L21.14 9.69C20.86 8.89 20.58 8.08 20.31 7.32C20.22 7.06 20.27 6.94 20.54 6.92L21.17 6.85L21.17 6.44L18.03 6.44ZM25.75 8.64C25.75 10.44 26.46 11.89 27.48 12.61C28.55 13.36 29.78 13.51 31.01 13.51C31.99 13.51 33.35 13.20 34.23 12.92L34.23 10.16C34.23 9.46 34.30 9.39 35.22 9.30L35.22 8.89L31.36 8.89L31.36 9.30C32.77 9.39 32.84 9.48 32.84 10.16L32.84 12.05C32.84 12.54 32.66 12.70 32.37 12.81C32.00 12.95 31.61 13.02 31.14 13.02C27.92 13.02 27.31 10.16 27.31 8.41C27.31 6.20 28.20 3.89 30.95 3.89C32.49 3.89 33.39 4.59 33.68 6.17L34.10 6.17L34.10 3.98C33.42 3.64 32.21 3.40 31.09 3.40C28.99 3.40 27.59 4.09 26.80 5.12C26.08 6.06 25.75 7.18 25.75 8.64ZM35.73 13.30L39.42 13.30L39.42 12.89C38.18 12.82 38.09 12.80 38.09 12.08L38.09 8.81C38.09 7.73 38.57 7.36 38.89 7.36C39.12 7.36 39.35 7.45 39.76 7.67C39.86 7.73 39.97 7.74 40.04 7.74C40.38 7.74 40.68 7.39 40.68 6.96C40.68 6.65 40.49 6.27 39.94 6.27C39.44 6.27 39.02 6.58 38.09 7.39L37.93 6.27L35.80 6.62L35.80 6.97L36.33 7.04C36.69 7.10 36.78 7.17 36.78 7.67L36.78 12.08C36.78 12.80 36.71 12.82 35.73 12.89ZM41.27 11.48C41.27 12.53 41.97 13.47 43.29 13.47C44.10 13.47 44.93 12.92 45.37 12.63C45.57 13.15 45.79 13.47 46.28 13.47C46.80 13.47 47.40 13.31 47.94 13.05L47.85 12.71C47.66 12.75 47.35 12.78 47.14 12.73C46.89 12.67 46.65 12.40 46.65 11.52L46.65 8.13C46.65 7.32 46.47 6.27 44.35 6.27C42.77 6.27 41.52 7.10 41.52 7.87C41.52 8.32 42.04 8.53 42.31 8.53C42.60 8.53 42.69 8.37 42.76 8.13C43.06 7.10 43.64 6.76 44.20 6.76C44.74 6.76 45.39 7.04 45.39 8.16L45.39 8.75C45.04 9.11 43.68 9.46 42.57 9.81C41.57 10.12 41.27 10.82 41.27 11.48ZM42.69 11.28C42.69 10.63 42.99 10.29 43.78 10.00C44.34 9.79 45.08 9.52 45.39 9.32L45.39 11.30C45.39 12.43 44.52 12.73 43.97 12.73C43.11 12.73 42.69 12.11 42.69 11.28ZM48.36 13.30L51.77 13.30L51.77 12.89C50.78 12.82 50.72 12.80 50.72 12.08L50.72 8.81C50.72 8.46 50.74 8.26 50.83 8.06C51.10 7.50 51.72 7.03 52.49 7.03C53.69 7.03 53.83 7.91 53.83 8.78L53.83 12.08C53.83 12.80 53.79 12.82 52.78 12.89L52.78 13.30L56.20 13.30L56.20 12.89C55.20 12.82 55.15 12.80 55.15 12.08L55.15 8.81C55.15 8.46 55.16 8.26 55.24 8.04C55.45 7.48 56.06 7.03 56.84 7.03C57.72 7.03 58.25 7.53 58.25 8.78L58.25 12.08C58.25 12.80 58.21 12.82 57.20 12.89L57.20 13.30L60.62 13.30L60.62 12.89C59.63 12.82 59.57 12.80 59.57 12.08L59.57 8.50C59.57 7.08 58.81 6.27 57.48 6.27C56.34 6.27 55.51 7.04 55.02 7.35C54.68 6.69 54.15 6.27 53.17 6.27C52.09 6.27 51.21 6.97 50.72 7.34L50.60 6.27L48.43 6.62L48.43 6.97L48.96 7.04C49.32 7.10 49.41 7.17 49.41 7.67L49.41 12.08C49.41 12.80 49.36 12.82 48.36 12.89Z"></path></g><!----><g data-v-423bf9ae="" id="2e6b5f7d-4e73-4518-b5c6-47c19fa3c681" transform="matrix(3.41530484177064,0,0,3.41530484177064,0.24785164101379564,1.2825891696998255)" stroke="none" fill="white"><path d="M33 2l-7.4 23a1.4 1.4 0 0 1-1.3 1h-.4a1.4 1.4 0 0 1-.9-1.8l7.4-23A1.4 1.4 0 1 1 33 2zM18.7 20.5l-10.5-7 10.7-8.1A3 3 0 1 0 15.3.6l-14 10.7a3 3 0 0 0 .2 4.9l14 9.3a3 3 0 1 0 3.2-5zm36-10.7L40.7.5a3 3 0 0 0-3.3 5l10.5 7-10.7 8.1a3 3 0 0 0 3.6 4.8l14-10.7a3 3 0 0 0-.1-4.9z"></path></g><!----></svg>