<svg data-v-fde0c5aa="" xmlns="http://www.w3.org/2000/svg" viewBox="0 0 300 300" class="icon"><!----><defs data-v-fde0c5aa=""><!----></defs><rect data-v-fde0c5aa="" fill="#E1F4FC" x="0" y="0" width="300px" height="300px" class="logo-background-square"></rect><!----><defs data-v-fde0c5aa=""><linearGradient data-v-fde0c5aa="" gradientTransform="rotate(25)" id="566282c4-2b60-49de-a223-fbbcdef81eb1" x1="0%" y1="0%" x2="100%" y2="0%"><stop data-v-fde0c5aa="" offset="0%" stop-color="#0D7CE9" stop-opacity="1"></stop><stop data-v-fde0c5aa="" offset="100%" stop-color="#15CFF1" stop-opacity="1"></stop></linearGradient></defs><g data-v-fde0c5aa="" id="c48070d5-acf2-49bb-b302-81e558ac93c4" fill="url(#566282c4-2b60-49de-a223-fbbcdef81eb1)" stroke="none" transform="matrix(3.9361092594426506,0,0,3.9361092594426506,39.50011375618168,98.59841196713751)"><path d="M33 2l-7.4 23a1.4 1.4 0 0 1-1.3 1h-.4a1.4 1.4 0 0 1-.9-1.8l7.4-23A1.4 1.4 0 1 1 33 2zM18.7 20.5l-10.5-7 10.7-8.1A3 3 0 1 0 15.3.6l-14 10.7a3 3 0 0 0 .2 4.9l14 9.3a3 3 0 1 0 3.2-5zm36-10.7L40.7.5a3 3 0 0 0-3.3 5l10.5 7-10.7 8.1a3 3 0 0 0 3.6 4.8l14-10.7a3 3 0 0 0-.1-4.9z"></path></g><!----></svg>